<?xml version="1.0" encoding="UTF-8"?>
<svg xmlns="http://www.w3.org/2000/svg" version="1.1" viewBox="0 0 1280 1280">
  <!-- Generator: Adobe Illustrator 28.7.1, SVG Export Plug-In . SVG Version: 1.2.0 Build 142)  -->
  <g>
    <g id="Layer_1">
      <g>
        <path d="M603,1c-24.4,1.5-58,5.7-80.5,10.1-10.9,2.1-11.8,2.3-31,6.9-145.1,35.1-275.8,121.7-366.2,242.5-44.9,60-79.7,130.3-100.2,202C8,522.5.6,576.3.5,640c0,33.8.8,46.8,4.6,78,12,98.3,46.9,193.1,101.4,275.6,32.3,48.9,70.1,91.8,115,130.5,42.1,36.3,83.3,63.7,134,88.9,30.7,15.3,50.2,23.5,78.4,33,52.9,17.7,93.4,26.1,156.6,32.2,20.2,1.9,81.7,1.6,105-.5,82.6-7.7,151-26.4,222.3-60.8,181.7-87.6,309-251.6,349.1-449.4,4.9-24.3,8.1-46.8,11.3-80,1.9-19.8,1.6-81.7-.5-104.3-11.5-122.1-51.9-228.7-123.1-324.2-32.7-43.9-79.7-91.3-124.6-125.6C939.7,64.3,828.1,18.4,718,5c-34.3-4.1-84.3-5.9-115-4ZM662.7,15c121.1,4.7,227.6,39.2,327.8,106.3,49.8,33.4,101.5,81,140.1,129.2,64.2,80,107.3,176.4,125.5,280.5,6.9,39.8,9.3,72.4,8.6,119-.6,40.5-1.8,55.8-7.3,91-16.6,105.7-61.2,207-127.8,290-21,26.2-55.2,61.6-80.1,82.9-75.8,64.9-166,111.6-258.5,134-118.9,28.7-241.1,23-356.5-16.6-31.7-10.8-76.6-31.5-107-49.4-100.5-58.8-183.6-145.1-239.5-248.9C24.9,816,1.6,682.3,21.1,549.5c23-156.9,105.2-300.4,227.9-397.9C355.2,67.2,481.5,20,614.5,15.1c11-.4,20.7-.8,21.5-.9s12.9.3,26.7.8Z"/>
        <path d="M632.9,25.5c-1.4.8-3.5,2.7-4.5,4.2-1.8,2.6-1.9,5.5-2.2,46.3-.2,40-.1,43.8,1.5,46.9,5,9.7,18.2,10.6,24.7,1.8,2-2.8,2.1-3.9,2.1-46.5s-.1-48.5-6-52.2c-3.8-2.4-11.7-2.6-15.6-.5Z"/>
        <path d="M333,105.8c-4.7,2.3-8,7.5-8,12.5s3.1,9.4,18.1,36.1c24.7,43.7,24.3,43.1,28.5,45.1,9.1,4.3,21.8-5.2,20-14.9-.3-1.8-10-19.8-21.4-40.1-17.8-31.5-21.3-37.1-24.3-38.7-4.2-2.3-8.4-2.3-12.9,0Z"/>
        <path d="M934.8,105.5c-3.3,1.9-3.1,1.4-25.7,43.4-16,29.8-19.1,36.2-19.1,39.7,0,7.6,7.1,14.4,15.2,14.4s9.1-3.7,28.1-39c25.5-47.6,24.2-44.4,21.3-51.4-2.8-6.8-13.5-10.7-19.8-7.1Z"/>
        <path d="M670.5,171.6c-1.1.3-5,1.4-8.7,2.5l-6.8,2v4.9c0,2.8.2,5,.4,5s3-1.2,6.2-2.6c6.9-3.1,15.7-4.1,20.6-2.5,9.4,3.1,11.9,13.8,5.4,22.9-1.4,2-9.4,10.7-17.6,19.4-14.3,14.9-15,15.8-15,19.7v4.1h47v-8h-35.2l14.5-15.1c16.9-17.6,20.1-22.6,20.1-31.4-.1-9-4.4-15.5-12.7-19-4-1.6-14.7-2.8-18.2-1.9Z"/>
        <path d="M601.1,174.6c-3.6.8-6.7,1.6-6.9,1.9-.3.2-.5,2.3-.6,4.5-.1,4.6-.2,4.6,9.4,2.5,3.6-.8,7-1.4,7.5-1.5.6,0,.9,9.9.8,28.2l-.2,28.3-8.1.3-8,.3v7.9h43v-7.9l-8.2-.3-8.3-.3v-65.5h-7c-3.8.2-9.9.8-13.4,1.6Z"/>
        <path d="M109.5,328.1c-6.3,5.6-7.1,15-1.7,20.1,1.5,1.5,19.4,11.9,39.8,23.2,33.1,18.4,37.6,20.6,41.7,20.6,9.7,0,16.7-11.3,12.6-20.4-1.6-3.4-2.9-4.2-43.9-26.9-32-17.7-36-19.7-40.2-19.7s-5.4.6-8.3,3.1Z"/>
        <path d="M1125.4,344.6c-18.1,10.8-34.8,20.7-37.1,22.1-2.4,1.3-5.4,3.8-6.8,5.5-5.2,6.2-1.9,18.1,6.1,21.4,4.3,1.8,6.8,1.8,10.7-.2,10.5-5.4,72.7-43.1,74.9-45.5,5.4-5.7,4.9-13-1.2-19.1-3.3-3.4-4.3-3.8-8.7-3.8s-7,1.2-37.9,19.6Z"/>
        <path d="M1075.5,597.7c-9.8,2.2-9.5,2-9.5,6.8v4.4l4.8-1.4c7.2-2,13.7-2.7,19-1.9,10.1,1.5,14.7,11.5,8.5,18.4-2.2,2.3-4.2,3.3-8.7,4.1-3.3.6-7.5.9-9.3.7q-3.3-.4-3.3,3.9v4.3h7.3c8.5,0,13.1,1.9,16.4,6.9,4.5,6.6,1.8,15.6-5.7,19.3-5,2.6-18.3,2.4-25.2-.2-2.9-1.1-5.4-2-5.6-2s-.2,2.1,0,4.7l.3,4.8,7,1.8c14.3,3.7,30.9.4,36.7-7.4,6.9-9.2,6.3-20.9-1.3-27.9-1.8-1.6-4.6-3.2-6.3-3.6l-3-.7,4.7-2.3c6.3-3.2,9.1-8.6,8.5-16.1-.7-8-6-13.9-14.7-16.3-3.6-1-16.8-1.2-20.6-.3Z"/>
        <path d="M180,601.6c-4.6,2-8.7,5.9-11.3,10.9-1.7,3.2-2.2,5.7-2.2,12.5,0,9.8,1.9,14.5,7.9,19.8,7.9,6.9,22,7,29.6,0,1.8-1.6,3.3-2.8,3.5-2.6.8,1-2.8,13.7-4.9,17.3-4.6,7.7-16,10.7-26.6,7-2.3-.8-4.4-1.5-4.6-1.5s-.4,2-.4,4.5c0,4.4.1,4.4,4.3,5.6,2.3.7,7.6,1.3,11.7,1.3,6.2,0,8.4-.5,12.6-2.7,11.2-5.8,16.5-15.9,17.2-33,.9-21.2-4.5-34.3-16-39.1-4.8-2-16.2-2-20.8,0ZM198.7,610c4.5,2.7,6.6,7.2,6.6,14.5,0,11.2-5.2,17.5-14.3,17.5s-5.8-.8-7.7-2c-8.6-5.2-9.6-20.9-1.8-28.7s3.9-3.3,8.7-3.3,6.4.7,8.5,2Z"/>
        <path d="M30,628.3c-4.9,3.2-6.1,6.2-5.7,13.1.3,5.3.7,6.2,4,9.2l3.7,3.4h44.6c43.2,0,44.8-.1,48-2,4.2-2.6,6.9-9.3,6-14.5-.4-2-2.2-5.3-4.1-7.3l-3.3-3.7-44.9-.3-44.9-.3-3.4,2.4Z"/>
        <path d="M1155.3,628c-8.7,5.2-8.2,20.2.7,24.7,1.9,1,13.4,1.3,47,1.3s45.1-.3,47-1.3c8.9-4.5,9.4-19.5.7-24.7-3-1.9-5.3-2-47.7-2s-44.7.1-47.7,2Z"/>
        <path d="M182.5,886.9c-9.8,4.7-74,43.9-75.7,46.1-3,4.1-3.4,9.2-.9,14.4,2.8,5.6,6.3,8,12.1,8s8-2.1,41.5-22.1c20.4-12.2,38.1-23.3,39.5-24.8,3.3-3.5,3.5-11.9.4-16.1-4.9-6.7-10.6-8.5-16.9-5.5Z"/>
        <path d="M1087.2,890c-5.1,3.2-7.4,7.6-6.9,13.7.2,3.3,1.1,6,2.2,7.3,1.1,1.2,18.5,11.6,38.9,23.2,31.4,18,37.6,21.1,41.2,21.2,7,.2,13.3-5.8,14.1-13.5.9-8.1-.2-8.9-41.6-32.6-40.3-23-41.3-23.3-47.9-19.3Z"/>
        <path d="M643,1042.9c-4.6,1.4-8.5,3.9-12.1,7.8-7.1,7.4-9.9,16-9.9,30.8s4.6,28.8,13.9,34.3c4,2.3,5.7,2.7,12.7,2.7s8.6-.3,13-3c6.9-4.3,10.5-10.6,11.1-19.2.9-12.2-3.4-21.1-12.3-25.4-9-4.3-22.3-2.2-26.8,4.3l-1.6,2.2v-3c0-4.7,2.9-13.5,5.6-17.2,1.4-1.7,3.9-4,5.7-4.9,4.2-2.2,15.8-2.2,21,0l3.8,1.6-.3-4.7c-.3-4.5-.4-4.7-4.3-5.8-4.5-1.4-15.7-1.6-19.5-.5ZM654.9,1078.9c5.2,3.7,6.6,6.8,6.6,14.4-.1,12.3-5.2,18.2-15.3,17.4-8.8-.6-13.2-6.3-13.2-17.2s1.3-10.7,4.8-13.8c4.3-3.9,12.3-4.3,17.1-.8Z"/>
        <path d="M894.6,1078.9c-4.1,2.7-6.7,7.3-6.8,12,0,3.4,3.1,9.6,21.2,41.8,11.6,20.8,22.5,39,24.1,40.5,5.6,5.3,16.3,3,20.9-4.4,4-6.6,3.6-7.5-19.5-48.8-12.1-21.6-22.8-39.5-24.3-40.7-3.5-3-11.4-3.1-15.6-.4Z"/>
        <path d="M375,1080.8c-3,1.4-7,7.4-26.7,39.2-20.9,33.7-23.2,37.9-23.3,41.8,0,5.7,2.5,9.8,7.5,12.2s8.6,2.5,13.1.4c3.6-1.7,3.8-1.9,36.3-54.8,15.3-24.8,16-26.9,12.1-33.3-2.2-3.7-8.6-7.3-12.7-7.3s-4.4.8-6.3,1.8Z"/>
        <path d="M637,1148.7c-4.2.8-8.8,5-10,9.1-.6,2.3-1,19.7-1,45.5,0,45.2.1,46.3,5.4,50.4,6.1,4.8,16.3,3.3,20.9-3.1q2.2-3.1,2.2-48.1c0-42.5-.1-45.2-1.9-47.8-3-4.5-9.8-7.1-15.6-6Z"/>
      </g>
    </g>
  </g>
</svg>